<svg id="Layer_1" data-name="Layer 1" xmlns="http://www.w3.org/2000/svg" viewBox="0 0 120.3 120.3"><defs><style>.cls-1{fill:#d9a828;}.cls-2,.cls-3{fill:#231f20;}.cls-2{stroke:#231f20;stroke-miterlimit:10;stroke-width:0.25px;}</style></defs><title>avesbox_logo_only</title><rect class="cls-1" width="120.3" height="120.3" rx="20"/><path class="cls-2" d="M293.94,434.92c2.27,1,4.19,1,6.5,1.73a2.12,2.12,0,0,1,1.15.64c.56.76.25,2.84.17,3.75-.13,1.47,0,1.79-1.51,2.11-.42.08-.95.16-1.14.54a25.75,25.75,0,0,1,3.73.05c.89.09,1.9,0,2.77,0a3.29,3.29,0,0,0,1,0,8.34,8.34,0,0,0,.82-.44c-.89,0-2.83-.21-3.43-1a1.53,1.53,0,0,1-.28-1c-.13-3.85,2.7-5.46,5.57-7.13,6.28-3.64,11.6-7.6,10.89-15.88-.26-3-1.4-3-1.71-4.5-.28-1.38-.23-3.49.86-4.55a1.67,1.67,0,0,0,2.25-2.46l2.52-.65a17.78,17.78,0,0,0-1.67-1c.38-1.42-.42-2.06-1.73-2.37a1.9,1.9,0,0,0-.43-2.63,2.13,2.13,0,0,0-3,1.12c-2.52-.4-4.82,4.95-5.68,6.92s-.92,4.08-3,5.72c-4.37,3.48-10.11,5.24-16,1.24-1.77-1.21-1.82-3.3-2.6-5.49-.46-1.27-4.39-4.46-6-3.1a2,2,0,0,0-.31,2.33,28.43,28.43,0,0,0,2.18,3.52c-1.12-.57-2.78-2.07-2.95-.9a3.79,3.79,0,0,0,1.5,3.06,21.38,21.38,0,0,1,2.14,2.77,4.18,4.18,0,0,0-1.85-.17,1.35,1.35,0,0,0-1,1.44c.13.62,1.45-.12,1.46.51s-1.13.38-1.23.72c-.34,1.15,2.61,2.43,3.23,3.54.41.74-2.52-1.76-2.84-1.39s0,2.49,2.1,4a10.48,10.48,0,0,1,2,1.52C289.42,428.71,290.6,433.41,293.94,434.92Z" transform="translate(-245.13 -333.15)"/><path class="cls-3" d="M339.27,357.44,335,363.51a43.71,43.71,0,0,0-63,0l-4.26-6.07a51,51,0,0,1,71.48,0Z" transform="translate(-245.13 -333.15)"/><path class="cls-3" d="M330.75,369.61l-4.34,6.19a29.15,29.15,0,0,0-45.76,0l-4.34-6.19a36.45,36.45,0,0,1,54.44,0Z" transform="translate(-245.13 -333.15)"/><path class="cls-3" d="M317.23,388.91a14.58,14.58,0,0,0-27.42-.06l-4.75-6.78a21.88,21.88,0,0,1,36.93,0Z" transform="translate(-245.13 -333.15)"/></svg>